<svg width="42" height="69" viewBox="0 0 42 69" fill="none" xmlns="http://www.w3.org/2000/svg">
<path d="M20.4672 30.1617C14.9951 30.1617 10.5459 25.7408 10.5459 20.3035C10.5459 14.8662 14.9951 10.4453 20.4672 10.4453C25.9394 10.4453 30.3886 14.8662 30.3886 20.3035C30.3886 25.7408 25.9394 30.1617 20.4672 30.1617ZM20.4672 16.3123C18.2551 16.3123 16.4505 18.1055 16.4505 20.3035C16.4505 22.5016 18.2468 24.2947 20.4672 24.2947C22.6877 24.2947 24.484 22.5016 24.484 20.3035C24.484 18.1055 22.6877 16.3123 20.4672 16.3123Z" fill="#FF6D4D"/>
<path d="M8.45819 67.999C6.14626 67.999 4.56616 66.7182 3.7678 65.2391C2.72826 63.3137 1.92158 58.4962 1.69704 57.0666C1.5723 56.2733 1.7802 55.4635 2.27087 54.8355C2.76153 54.1992 3.49336 53.7943 4.29172 53.7034C4.34162 53.7034 9.87196 53.0506 13.3066 50.3072L13.3981 50.2411C14.6788 49.2164 15.2609 48.7537 16.2173 47.886C17.4232 46.7952 19.2943 46.8779 20.3921 48.0761C21.4898 49.2742 21.4067 51.1335 20.2008 52.2243C19.103 53.2159 18.3962 53.786 17.0988 54.819L17.0073 54.8933C14.1632 57.1575 10.5622 58.364 8.03406 58.9754C8.30849 60.2976 8.59125 61.4545 8.80747 62.0907C8.89063 62.0659 8.99875 62.0329 9.12349 61.9833C9.2316 61.942 9.32308 61.9089 9.37298 61.9007C10.9281 61.4131 12.5914 62.2643 13.082 63.8095C13.5644 65.33 12.7411 66.9496 11.2358 67.4702C10.2129 67.8503 9.28982 68.0156 8.44987 68.0156L8.45819 67.999Z" fill="url(#paint0_linear_11574_22774)"/>
<path d="M39.2534 51.0263C37.6317 50.8528 36.1764 52.0262 36.01 53.6375C35.9186 54.4969 35.7273 55.3315 35.4445 56.1083C34.9705 57.4222 34.2802 58.4468 33.5734 59.2236C32.2012 58.1824 30.7126 56.9511 29.6148 56.0091C27.5191 54.1994 26.2966 53.1004 25.3984 52.2989C24.9909 51.9353 24.65 51.6295 24.334 51.3486C23.0366 50.2082 21.4066 48.663 20.6997 47.9275C20.5833 47.8119 20.4586 47.7127 20.3338 47.6135C20.3338 47.6135 20.3338 47.6053 20.3255 47.597C16.7994 43.9776 13.7224 40.1765 10.9281 35.9704C10.0549 34.6648 9.23989 33.2187 9.09019 32.9626C7.78454 30.434 6.91133 28.3516 6.4872 26.7816C6.27929 26.0048 6.09633 24.848 5.98822 23.6828C5.89674 22.6582 5.88842 21.5343 5.94664 20.4436V20.2866C6.4872 12.0728 12.7244 5.86699 20.4752 5.86699C28.226 5.86699 34.9954 12.3372 34.9954 20.2948C34.9954 22.1954 34.9954 24.5587 34.0723 27.1121C32.9413 30.2605 32.1097 32.2685 30.7126 34.5078C29.6148 36.2679 27.6355 38.9535 24.4837 41.8044C23.2778 42.8952 23.1863 44.7544 24.2841 45.9526C25.3818 47.1508 27.253 47.2417 28.4588 46.1509C32.118 42.8456 34.4299 39.6807 35.7273 37.6149C37.3989 34.9458 38.3968 32.5577 39.6359 29.0953C40.9 25.5751 40.9 22.402 40.9 20.3031C40.9 9.10623 31.7355 0 20.4752 0C9.21494 0 0.790534 8.56912 0.0586998 19.9312V20.1378C-0.0327794 21.5013 -0.0161468 22.9061 0.100281 24.2117C0.175128 25.0959 0.366403 26.8146 0.773901 28.3186C1.31446 30.3266 2.32073 32.7477 3.85093 35.706C3.86756 35.7308 3.88419 35.7639 3.89251 35.7887C3.93409 35.863 4.9071 37.5983 5.98822 39.218C8.9904 43.7215 12.2836 47.8036 16.0676 51.6874C16.1757 51.7948 16.2921 51.8857 16.4085 51.9683C16.4085 51.9683 16.4085 51.9766 16.4252 51.9849C17.2152 52.8029 18.9616 54.4804 20.4253 55.753C20.7247 56.0174 21.049 56.3066 21.4399 56.6537C22.3547 57.4717 23.6104 58.5956 25.7394 60.4383C26.3715 60.9837 29.6647 63.8015 32.1263 65.4211C32.617 65.7434 33.1908 65.9086 33.7563 65.9086C34.3634 65.9086 34.9622 65.7268 35.4778 65.355C37.2492 64.0907 39.6443 61.8017 40.9915 58.0998C41.4406 56.8768 41.7316 55.5794 41.873 54.249C42.0393 52.6377 40.8668 51.1916 39.2451 51.0263H39.2534Z" fill="#FF6D4D"/>
<defs>
<linearGradient id="paint0_linear_11574_22774" x1="4.7408" y1="62.3552" x2="21.1296" y2="51.8485" gradientUnits="userSpaceOnUse">
<stop offset="0.27" stop-color="#FF6D4D"/>
<stop offset="0.4" stop-color="#FF5834"/>
<stop offset="0.64" stop-color="#F24A25"/>
<stop offset="0.91" stop-color="#E2330C"/>
</linearGradient>
</defs>
</svg>
